<?xml version="1.0" encoding="UTF-8" standalone="no"?>
<svg width="50px" height="50px" viewBox="0 0 50 50" version="1.1" xmlns="http://www.w3.org/2000/svg" xmlns:xlink="http://www.w3.org/1999/xlink">
    <!-- Generator: Sketch 39.1 (31720) - http://www.bohemiancoding.com/sketch -->
    <title>Dribbble</title>
    <desc>Created with Sketch.</desc>
    <defs></defs>
    <g id="Page-1" stroke="none" stroke-width="1" fill="none" fill-rule="evenodd">
        <g id="tech-stuff" transform="translate(-444.000000, -617.000000)">
            <g id="Dribbble" transform="translate(444.000000, 617.000000)">
                <circle id="Oval-1-Copy-19" fill="#D8D8D8" cx="25" cy="25" r="25"></circle>
                <path d="M35.5761111,24.2929719 C35.5413889,24.2868545 35.5052778,24.2812932 35.4677778,24.2748977 C35.3366667,24.2526525 35.1897222,24.229295 35.0269444,24.2048253 C34.9741667,24.1967614 34.9269444,24.1898098 34.8708333,24.1814679 C34.6533333,24.1503246 34.4186111,24.1189032 34.1588889,24.0883161 C34.1430556,24.0866477 34.1258333,24.0849793 34.11,24.0833109 C33.8680556,24.0555044 33.6075,24.0302005 33.3358333,24.0068431 C33.2697222,24.0010037 33.2044444,23.9959986 33.1369444,23.9907153 C32.8577778,23.9687482 32.5683333,23.9501178 32.2658333,23.9364927 C32.2408333,23.9353804 32.2177778,23.933712 32.1927778,23.9325998 C31.8580556,23.9186965 31.5113889,23.912301 31.1558333,23.9128571 C31.1030556,23.9128571 31.05,23.9142475 30.9969444,23.9148036 C30.6869444,23.9173062 30.3722222,23.9273165 30.0525,23.9442785 C29.9891667,23.9478933 29.9272222,23.9503959 29.8636111,23.9542888 C29.4883333,23.9779243 29.1102778,24.0104579 28.7302778,24.0582851 C28.6541667,23.8722597 28.5872222,23.6912394 28.5072222,23.5029895 C28.2827778,22.9757784 28.04,22.4530163 27.7883333,21.9380401 C28.2158333,21.7625811 28.6102778,21.5823951 28.9869444,21.3949793 C29.0155556,21.3810761 29.0433333,21.3671728 29.0713889,21.3529915 C31.7419444,20.0066012 33.1530556,18.472239 33.5822222,17.9350176 C33.7791667,18.1772121 34.0022222,18.3991079 34.1766667,18.6568741 C34.5533333,19.2180091 34.8786111,19.8152925 35.1411111,20.4359334 C35.4088889,21.0690872 35.6127778,21.7292134 35.7511111,22.4012963 C35.8805556,23.0436262 35.9461111,23.7031962 35.9555556,24.3624881 C35.8588889,24.3435797 35.7313889,24.3202222 35.5761111,24.2929719 M35.7511111,26.6228778 C35.6127778,27.2969072 35.4088889,27.9573114 35.1411111,28.589909 C34.8786111,29.2105499 34.5533333,29.8081114 34.1766667,30.3692464 C33.8019444,30.9231517 33.3730556,31.4436893 32.8991667,31.91779 C32.4472222,32.3713138 31.9491667,32.7809035 31.4236111,33.1435001 C31.25,32.1755561 30.6575,29.2597674 29.3838889,25.7503101 C31.2644444,25.4486097 33.0066667,25.5898667 34.2380556,25.792576 C34.2402778,25.7931321 34.2425,25.7934102 34.2444444,25.7936882 C34.7238889,25.8729367 35.1225,25.9610833 35.4238889,26.0361608 C35.4455556,26.0417221 35.4661111,26.0467273 35.4866667,26.0520105 C35.6188889,26.0856564 35.7369444,26.1176339 35.8236111,26.1426597 C35.7988889,26.302547 35.7830556,26.4646589 35.7511111,26.6228778 M29.5727778,34.1639983 C28.9427778,34.4309407 28.2811111,34.6361526 27.6075,34.7746289 C26.92,34.9142175 26.2108333,34.9870705 25.5,34.9870705 C24.7891667,34.9870705 24.0802778,34.9142175 23.3905556,34.7746289 C22.7188889,34.6361526 22.0594444,34.4309407 21.4272222,34.1639983 C20.8072222,33.901227 20.2102778,33.575613 19.65,33.198557 C19.4397222,33.0561877 19.2391667,32.8985249 19.0394444,32.740584 C19.0919444,32.6432613 19.1755556,32.500336 19.2730556,32.342117 C19.2894444,32.3154228 19.3036111,32.2912311 19.3213889,32.2631466 C19.4255556,32.0982541 19.5580556,31.9036086 19.7097222,31.6933916 C19.7388889,31.6533502 19.7691667,31.6121966 19.8,31.5707649 C19.9641667,31.3497033 20.1530556,31.1105675 20.3711111,30.8566942 C20.4033333,30.8194335 20.4397222,30.7802264 20.4730556,30.7421315 C20.7122222,30.470184 20.9752778,30.1868358 21.28,29.8937554 C21.28,29.8934774 21.2802778,29.8934774 21.2802778,29.8934774 C21.5780556,29.6067924 21.9191667,29.3128778 22.2838889,29.0192413 C22.3391667,28.9747509 22.3913889,28.9302605 22.4483333,28.8857701 C22.8083333,28.6043684 23.2061111,28.3249132 23.6319444,28.0507412 C23.7122222,27.9990211 23.7941667,27.9475791 23.8769444,27.8966932 C24.3188889,27.6233554 24.7927778,27.3575253 25.3063889,27.1053204 C25.3833333,27.0677817 25.4658333,27.0321894 25.5444444,26.9949287 C26.0972222,26.7341038 26.6802778,26.4841234 27.3177778,26.2619496 C27.3405556,26.2541637 27.3630556,26.2488805 27.3858333,26.2410947 C28.7872222,29.8873599 29.4241667,32.9813883 29.6305556,34.1361919 C29.6108333,34.1448119 29.5925,34.1559345 29.5727778,34.1639983 M18.5333333,30.2310482 C18.3491667,30.4699059 18.1888889,30.6870746 18.0575,30.8761588 C18.0333333,30.9103608 18.0177778,30.9337182 17.9955556,30.9662518 C17.8702778,31.1486624 17.7641667,31.309662 17.6933333,31.4222783 C17.3913889,31.0808146 17.0794444,30.7460244 16.8233333,30.3692464 C16.4466667,29.8081114 16.1216667,29.2105499 15.8588889,28.589909 C15.5913889,27.9573114 15.3863889,27.2969072 15.2488889,26.6228778 C15.1097222,25.9343891 15.0369444,25.2247674 15.0369444,24.5131993 C15.0369444,24.400583 15.0502778,24.2888009 15.0538889,24.1767407 C15.1852778,24.1775749 15.3786111,24.1767407 15.6180556,24.173404 L15.6186111,24.173404 C17.3013889,24.1483781 21.4702778,23.9414978 25.7891667,22.648496 C26.0975,23.252731 26.3813889,23.8664203 26.6519444,24.4784412 C26.5147222,24.5173703 26.3755556,24.5510161 26.2402778,24.5949504 C25.6602778,24.7826442 25.1169444,25.0112136 24.5944444,25.2575791 C24.52,25.2928933 24.4436111,25.3248708 24.37,25.3610192 C23.8819444,25.6015454 23.4230556,25.8637606 22.9869444,26.1398791 C22.905,26.1918772 22.825,26.2430411 22.7447222,26.2958735 C22.3211111,26.5753287 21.9205556,26.8639601 21.5486111,27.1606554 C21.4891667,27.2079264 21.4352778,27.2546413 21.3772222,27.3021904 C20.9983333,27.613067 20.6388889,27.9270023 20.3161111,28.2381569 L20.3158333,28.238713 C19.9855556,28.5570974 19.6927778,28.867974 19.4213889,29.1691183 C19.3830556,29.2119403 19.3436111,29.25365 19.3063889,29.2959159 C19.0566667,29.5781517 18.8375,29.8437037 18.6411111,30.093128 C18.6030556,30.1412332 18.5691667,30.1846113 18.5333333,30.2310482 M15.8588889,20.4359334 C16.1216667,19.8152925 16.4466667,19.2180091 16.8233333,18.6568741 C17.2,18.1010223 17.6272222,17.5802067 18.1027778,17.1061061 C18.5763889,16.6320054 19.0963889,16.2023951 19.65,15.8272855 C20.1016667,15.5222483 20.5844444,15.2617015 21.0791667,15.0300734 C21.5594444,15.6913118 23.2769444,18.1032468 24.9075,21.0042981 C24.5772222,21.0918886 24.2494444,21.1736397 23.9255556,21.2501075 L23.9255556,21.2501075 C23.9247222,21.2501075 23.9238889,21.2503856 23.9230556,21.2506636 C21.3069444,21.8674116 18.9388889,22.1268462 17.3077778,22.2350134 C17.3063889,22.2352915 17.3047222,22.2352915 17.3033333,22.2352915 C16.6547222,22.2781135 16.1236111,22.2970219 15.7394444,22.3050858 C15.735,22.3050858 15.7305556,22.3053639 15.7261111,22.3053639 C15.5380556,22.3092568 15.3841667,22.3106471 15.2722222,22.3106471 C15.4091667,21.6699855 15.6036111,21.0401685 15.8588889,20.4359334 M23.3905556,14.2512136 C24.0802778,14.1099566 24.7891667,14.03905 25.5,14.03905 C26.2108333,14.03905 26.92,14.1099566 27.6075,14.2512136 C28.2811111,14.389968 28.9405556,14.5940676 29.5727778,14.8618441 C30.1927778,15.1248935 30.7916667,15.4502295 31.35,15.8272855 C31.7247222,16.0814368 32.0583333,16.3923134 32.3988889,16.6931797 C32.0022222,17.1992578 30.7208333,18.6415805 28.1583333,19.8433771 C28.1513889,19.8467139 28.1441667,19.8500507 28.1369444,19.8533874 C27.7725,20.0235632 27.3827778,20.1892898 26.9652778,20.3463965 C25.3686111,17.4128117 23.6394444,15.0117211 23.1269444,14.3193395 C23.2152778,14.2987627 23.3016667,14.2698439 23.3905556,14.2512136 M37.0175,19.641502 C36.7033333,18.900459 36.3155556,18.1847199 35.8652778,17.5145834 C35.4169444,16.8536231 34.9027778,16.2307577 34.3394444,15.6646175 C33.7738889,15.0995896 33.1516667,14.5860037 32.4913889,14.1372069 C31.8216667,13.6853515 31.1066667,13.298007 30.3666667,12.9837937 C29.61,12.6642971 28.8213889,12.4196 28.0175,12.2538733 C27.1936111,12.0850879 26.3475,12 25.5,12 C24.6527778,12 23.8063889,12.0850879 22.9825,12.2538733 C22.1786111,12.4196 21.3888889,12.6642971 20.6336111,12.9837937 C19.8933333,13.298007 19.1783333,13.6853515 18.5088889,14.1372069 C17.8483333,14.5860037 17.2263889,15.0995896 16.6608333,15.6646175 C16.0972222,16.2307577 15.5833333,16.8536231 15.135,17.5145834 C14.6844444,18.1847199 14.2966667,18.900459 13.9825,19.641502 C13.6636111,20.3975605 13.4191667,21.188099 13.2544444,21.9928189 C13.085,22.8178375 13,23.6648232 13,24.5131993 C13,25.3610192 13.085,26.208283 13.2544444,27.0333016 C13.4191667,27.8380215 13.6636111,28.6285601 13.9825,29.3826721 C14.2966667,30.1256616 14.6844444,30.8411226 15.135,31.5115371 C15.5833333,32.1724974 16.0972222,32.7953628 16.6608333,33.361503 C17.2263889,33.9254186 17.8483333,34.4401168 18.5088889,34.8869671 C19.1783333,35.3399349 19.8933333,35.7281135 20.6336111,36.0423269 C21.3888889,36.3618234 22.1786111,36.6065206 22.9825,36.771135 C23.8063889,36.9410327 24.6527778,37.0258425 25.5,37.0258425 C26.3475,37.0258425 27.1936111,36.9410327 28.0175,36.771135 C28.8213889,36.6065206 29.61,36.3618234 30.3666667,36.0423269 C31.1066667,35.7281135 31.8216667,35.3399349 32.4913889,34.8869671 C33.1516667,34.4401168 33.7738889,33.9254186 34.3394444,33.361503 C34.9027778,32.7953628 35.4169444,32.1724974 35.8652778,31.5115371 C36.3155556,30.8411226 36.7033333,30.1256616 37.0175,29.3826721 C37.3355556,28.6285601 37.5808333,27.8380215 37.7455556,27.0333016 C37.9152778,26.208283 38,25.3610192 38,24.5131993 C38,23.6648232 37.9152778,22.8178375 37.7455556,21.9928189 C37.5808333,21.188099 37.3355556,20.3975605 37.0175,19.641502" id="Fill-30" fill="#292F36"></path>
            </g>
        </g>
    </g>
</svg>