<?xml version="1.0" encoding="UTF-8" standalone="no"?>
<svg width="51px" height="50px" viewBox="0 0 51 50" version="1.1" xmlns="http://www.w3.org/2000/svg" xmlns:xlink="http://www.w3.org/1999/xlink">
    <!-- Generator: Sketch 39.1 (31720) - http://www.bohemiancoding.com/sketch -->
    <title>Github</title>
    <desc>Created with Sketch.</desc>
    <defs></defs>
    <g id="Page-1" stroke="none" stroke-width="1" fill="none" fill-rule="evenodd">
        <g id="tech-stuff" transform="translate(-310.000000, -616.000000)">
            <g id="Group-2" transform="translate(160.000000, 601.000000)">
                <g id="Group-3">
                    <g id="social-icons" transform="translate(20.885333, 15.000000)">
                        <g id="Github" transform="translate(130.005231, 0.000000)">
                            <ellipse id="Oval-1-Copy-44" fill="#D8D8D8" cx="24.6262001" cy="25" rx="24.6262001" ry="25"></ellipse>
                            <g id="Group-24" transform="translate(12.000000, 14.000000)" fill="#292F36">
                                <path d="M12.8118979,17.2867557 C12.5177516,17.5845633 12.2824346,17.7299912 12.0930864,17.7299912 C11.9037383,17.7299912 11.6684213,17.5845633 11.374275,17.2867557 C11.186295,17.0948909 10.8831191,17.0948909 10.6956864,17.2867557 C10.5068855,17.4777863 10.5068855,17.7872726 10.6956864,17.9771909 C11.1715193,18.4629703 11.6320293,18.7046087 12.0930864,18.7046087 C12.5541436,18.7046087 13.0141063,18.4629703 13.4904865,17.9780251 C13.6790137,17.7872726 13.6790137,17.4777863 13.4904865,17.2867557 C13.3027801,17.0957251 12.9993306,17.0957251 12.8118979,17.2867557" id="Fill-93"></path>
                                <path d="M21.072913,16.2851793 C20.9021714,16.934739 20.6868289,17.4808585 20.4257912,17.9204791 C20.1650271,18.3606559 19.8002857,18.7321506 19.3293781,19.0357975 C18.8590176,19.3388883 18.4034329,19.5727408 17.9631712,19.7395798 C17.5231831,19.9061407 16.9543179,20.0351628 16.2571228,20.1280365 C15.560475,20.220354 14.9357903,20.2776354 14.3838898,20.2971 C13.8330838,20.3165645 13.1380777,20.3260187 12.2999661,20.3260187 C11.4626753,20.3260187 10.7693109,20.3165645 10.2223357,20.2971 C9.67481314,20.2776354 9.05341202,20.220354 8.35594331,20.1280365 C7.6595691,20.0351628 7.09070388,19.9061407 6.65071577,19.7395798 C6.20935954,19.5727408 5.75569021,19.3388883 5.28478254,19.0357975 C4.81442212,18.7321506 4.44858623,18.3606559 4.18727489,17.9204791 C3.92787891,17.4808585 3.7106211,16.934739 3.54015307,16.2851793 C3.3691378,15.6345074 3.28376697,14.8937425 3.28376697,14.0623284 C3.28376697,12.6444754 3.79708643,11.3581471 4.82290447,10.2047338 C5.13073197,9.85270364 5.48781188,9.58603938 5.89359693,9.40529718 C6.29965561,9.22372079 6.76153367,9.12139291 7.27923112,9.09747932 C7.79638132,9.07300961 8.2897262,9.07745865 8.75981299,9.1111045 C9.23017341,9.14558455 9.81189899,9.19229946 10.5044425,9.25124922 C11.1978068,9.30964285 11.7959498,9.3385616 12.2999661,9.3385616 C12.8050768,9.3385616 13.4034935,9.30964285 14.0952161,9.25124922 C14.7885804,9.19229946 15.3705796,9.14558455 15.8406664,9.1111045 C16.3107532,9.07745865 16.8040981,9.07300961 17.3212483,9.09747932 C17.839493,9.12139291 18.3027391,9.22372079 18.7126286,9.40529718 C19.1238861,9.58603938 19.4823341,9.85270364 19.7907089,10.2047338 C20.8173478,11.3581471 21.3298464,12.6444754 21.3298464,14.0623284 C21.3298464,14.8937425 21.2439283,15.6345074 21.072913,16.2851793 M22.8241095,4.90982168 C22.8793816,4.63815226 22.933012,4.25386655 22.984727,3.75891099 C23.0364421,3.26339931 23.0164675,2.69058559 22.9261714,2.04130401 C22.8366962,1.39230049 22.6675963,0.729949862 22.4196926,0.0539740506 L22.2273346,0.0150449623 C22.099552,-0.0116492697 21.8894084,-0.00275119236 21.5985456,0.0411830644 C21.3085037,0.0845611913 20.9686621,0.163809692 20.5798418,0.277816308 C20.1902006,0.392100989 19.688647,0.618167766 19.0724447,0.956016639 C18.4565161,1.29275325 17.8072053,1.72097322 17.1228705,2.23845203 C15.9591458,1.87863603 14.356801,1.5024142 12.3131,1.5024142 C10.2696727,1.5024142 8.66212907,1.87863603 7.49019557,2.23845203 C6.8066817,1.72097322 6.15490827,1.29497777 5.53378078,0.962134067 C4.91511591,0.629290362 4.41903479,0.400721001 4.04608467,0.277816308 C3.67450268,0.15518968 3.33083037,0.0762192439 3.01342602,0.0411830644 C2.69821066,0.00586882004 2.49490769,-0.00497571169 2.40488525,0.00837140429 C2.31458918,0.0211623904 2.24864569,0.0361778959 2.20650753,0.0539740506 C1.95860378,0.729949862 1.78676763,1.39230049 1.69318807,2.04130401 C1.59933488,2.69058559 1.57744493,3.26061866 1.62943357,3.75195937 C1.68087497,4.24302201 1.73614711,4.62925418 1.79607086,4.90982168 C1.85544736,5.19094531 1.92385348,5.43147147 2.00101557,5.6333466 C0.667370022,7.20385724 0,9.08552253 0,11.2780644 C0,12.4973791 0.102335543,13.6032432 0.307827501,14.5942666 C0.512498586,15.5861241 0.801172376,16.4453447 1.17357525,17.1733187 C1.54515724,17.9015707 2.01551766,18.5397297 2.58410926,19.0880737 C3.15379536,19.6361396 3.77081848,20.0882732 4.4381885,20.4439182 C5.10446403,20.7992852 5.86787623,21.0859701 6.72760424,21.3059195 C7.58651137,21.5247566 8.46074147,21.6782484 9.35002092,21.766395 C10.2401212,21.8539854 11.2188759,21.8979197 12.287653,21.8979197 C13.3558828,21.8979197 14.3376473,21.8539854 15.2304839,21.766395 C16.1246886,21.6782484 17.0011077,21.5247566 17.8600148,21.3059195 C18.7191956,21.0859701 19.4845231,20.7992852 20.1557239,20.4439182 C20.8274719,20.0882732 21.4494203,19.6361396 22.0229371,19.0889079 C22.5950858,18.5405639 23.0679089,17.9015707 23.4394909,17.1733187 C23.8110729,16.4453447 24.1019356,15.5861241 24.3120792,14.5951008 C24.520581,13.6032432 24.6262001,12.4973791 24.6262001,11.2780644 C24.6262001,9.09386448 23.9588301,7.21247726 22.6251845,5.6333466 C22.702073,5.42312952 22.7682901,5.18149111 22.8241095,4.90982168" id="Fill-94"></path>
                                <path d="M5.62884573,13.7748832 C5.62884573,15.0706657 6.31837934,16.1209169 7.16798324,16.1209169 C8.01758714,16.1209169 8.70712074,15.0706657 8.70712074,13.7748832 C8.70712074,12.4791007 8.01758714,11.4285714 7.16798324,11.4285714 C6.31837934,11.4285714 5.62884573,12.4791007 5.62884573,13.7748832 Z" id="Fill-95"></path>
                                <path d="M16.3148576,11.4285714 C15.4652537,11.4285714 14.77572,12.4791007 14.77572,13.7748832 C14.77572,15.0706657 15.4652537,16.1209169 16.3148576,16.1209169 C17.1644615,16.1209169 17.8539951,15.0706657 17.8539951,13.7748832 C17.8539951,12.4791007 17.1644615,11.4285714 16.3148576,11.4285714" id="Fill-96"></path>
                            </g>
                        </g>
                    </g>
                </g>
            </g>
        </g>
    </g>
</svg>