<?xml version="1.0" encoding="UTF-8" standalone="no"?>
<svg width="136px" height="178px" viewBox="0 0 136 178" version="1.1" xmlns="http://www.w3.org/2000/svg" xmlns:xlink="http://www.w3.org/1999/xlink">
    <!-- Generator: Sketch 39.1 (31720) - http://www.bohemiancoding.com/sketch -->
    <title>avatar</title>
    <desc>Created with Sketch.</desc>
    <defs></defs>
    <g id="Page-1" stroke="none" stroke-width="1" fill="none" fill-rule="evenodd">
        <g id="homepage" transform="translate(-231.000000, -109.000000)">
            <g id="avatar" transform="translate(115.000000, 92.000000)">
                <g transform="translate(91.000000, 2.000000)" id="Layer_1">
                    <g>
                        <g id="Group">
                            <g id="Body" transform="translate(25.293680, 123.786667)">
                                <path d="M65.9040892,0.633 L65.9040892,0.703333333 C58.1052045,0.914333333 40.8914498,1.61766667 22.2724907,3.798 C13.4899628,4.78266667 -12.927881,44.4506667 9.20408922,54.3676667 C26.8394052,62.3153333 53.4680297,68.6453333 68.0821561,68.6453333 L68.0821561,0.633 C66.6769517,0.633 65.9040892,0.633 65.9040892,0.633 L65.9040892,0.633 Z" id="Shape" fill="#212121"></path>
                                <path d="M113.891822,3.798 C95.2728625,1.61766667 78.0591078,0.914333333 70.260223,0.703333333 L70.260223,0.633 C70.260223,0.633 69.4873606,0.633 68.0821561,0.703333333 L68.0821561,68.7156667 C82.7665428,68.7156667 109.324907,62.3856667 126.960223,54.438 C149.092193,44.4506667 122.674349,4.853 113.891822,3.798 L113.891822,3.798 Z" id="Shape" fill="#0B0B0C"></path>
                            </g>
                            <g id="Neck" transform="translate(76.583643, 103.390000)">
                                <g id="Mask" transform="translate(0.702602, 7.033333)" fill="#ECBE9D">
                                    <path d="M0.632342007,0 L31.5468401,0 L31.5468401,20.045 C31.5468401,20.045 21.0078067,30.7356667 16.0895911,30.7356667 C10.6795539,30.7356667 0.632342007,20.045 0.632342007,20.045 L0.632342007,0 L0.632342007,0 Z" id="path-3_1_"></path>
                                </g>
                                <path d="M20.5862454,22.5066667 C31.9684015,22.5066667 41.1724907,11.394 41.1724907,7.385 C41.1724907,3.376 31.9684015,0.211 20.5862454,0.211 C9.20408922,0.211 0,3.44633333 0,7.385 C0,11.3236667 9.20408922,22.5066667 20.5862454,22.5066667 L20.5862454,22.5066667 Z" id="Shape" fill="#D2A88A"></path>
                            </g>
                            <ellipse id="Oval-2" fill="#DDB190" transform="translate(59.392171, 73.689336) rotate(-88.000018) translate(-59.392171, -73.689336) " cx="59.3921713" cy="73.6893359" rx="10.1878257" ry="5.62671825"></ellipse>
                            <ellipse id="Oval-2_1_" fill="#D2A88A" transform="translate(126.821788, 73.006685) rotate(-1.999982) translate(-126.821788, -73.006685) " cx="126.821788" cy="73.0066845" rx="5.62086937" ry="10.1984268"></ellipse>
                            <g id="Face" transform="translate(59.018587, 27.430000)">
                                <path d="M2.38884758,29.8916667 C1.05390335,34.815 0.281040892,40.1603333 0.281040892,45.7166667 C0.281040892,70.9663333 15.5275093,91.4333333 34.3572491,91.4333333 L34.3572491,-1.42108547e-14 C19.6728625,-1.42108547e-14 7.16654275,12.449 2.38884758,29.8916667 L2.38884758,29.8916667 Z" id="Shape" fill="#ECBE9D"></path>
                                <path d="M68.4334572,45.7166667 C68.4334572,20.467 53.1869888,-1.42108547e-14 34.3572491,-1.42108547e-14 L34.3572491,91.4333333 C53.1869888,91.4333333 68.4334572,70.9663333 68.4334572,45.7166667 L68.4334572,45.7166667 Z" id="Shape" fill="#DDB190"></path>
                            </g>
                            <g id="Hair" transform="translate(41.453532, 15.473333)">
                                <path d="M100.472119,80.8833333 C95.764684,68.4343333 95.9052045,64.4253333 96.0457249,50.851 C96.1159851,40.4416667 89.7925651,30.6653333 88.3171004,25.32 C85.0851301,13.1523333 69.5576208,0.492333333 51.9223048,0.492333333 C34.2869888,0.492333333 18.8297398,14.0666667 14.0520446,26.7266667 C9.766171,37.98 5.55055762,51.273 7.23680297,67.731 C8.2204461,76.9446667 1.26468401,81.1646667 0.421561338,86.51 C-1.68624535,99.8733333 6.74498141,97.8336667 4.35613383,105.992333 C1.26468401,116.612667 6.04237918,120.129333 13.4899628,125.756 C20.3052045,130.890333 16.3003717,135.813667 12.2252788,137.923667 C30.9847584,137.009333 23.4669145,123.013 23.4669145,123.013 C26.9799257,127.022 25.0828996,125.052667 30.3524164,125.756 C21.2185874,120.551333 28.4553903,110.493667 32.6710037,110.493667 L36.3245353,110.493667 L36.3245353,99.3106667 C36.3245353,99.3106667 36.2542751,98.959 36.0434944,98.2556667 C27.401487,92.207 20.9375465,81.3053333 18.6189591,68.2233333 C18.1973978,68.364 17.8460967,68.4343333 17.4245353,68.4343333 C14.3330855,68.2936667 11.9442379,63.6516667 12.1550186,58.025 C12.3657993,52.3983333 15.0356877,47.897 18.1271375,48.0376667 C18.267658,48.0376667 18.3379182,48.0376667 18.4784387,48.108 C18.8297398,45.998 19.2513011,43.888 19.8133829,41.9186667 C24.7315985,24.4056667 37.2379182,11.9566667 51.9223048,11.9566667 C68.0821561,11.9566667 81.6423792,27.0783333 85.0851301,47.3343333 C88.1765799,47.3343333 90.7762082,51.7653333 90.9869888,57.3216667 C91.1977695,62.9483333 88.8089219,67.5903333 85.7174721,67.731 L85.1553903,67.731 C82.9070632,81.1646667 76.3026022,92.3476667 67.3795539,98.4666667 L67.3795539,98.4666667 L67.3795539,110.423333 L71.8762082,110.212333 C71.8762082,110.212333 74.0542751,110.071667 73.2814126,115.346667 C72.3680297,121.747 75.5297398,128.71 75.1784387,125.685667 C74.8973978,123.575667 76.3026022,120.832667 77.1457249,119.426 C75.9513011,122.802 77.6375465,132.226667 87.1226766,139.26 C79.7453532,126.811 105.179554,124.349333 99.7695167,110.423333 C94.3594796,96.4973333 106.584758,97.06 100.472119,80.8833333 L100.472119,80.8833333 Z" id="Shape" fill="#94734B"></path>
                                <path d="M51.7817844,19.9043333 C65.1312268,19.9043333 66.6066914,15.2623333 71.4546468,20.1153333 C77.0052045,25.6716667 80.0263941,33.971 80.0263941,39.3163333 C80.0263941,45.6463333 84.4527881,54.0863333 85.0851301,47.264 C85.4364312,32.9863333 77.6375465,19.0603333 70.1197026,13.5743333 C62.6018587,8.08833333 51.9925651,8.15866667 51.9925651,8.15866667 C51.9925651,8.15866667 44.1234201,7.10366667 31.195539,15.614 C18.267658,24.1243333 18.267658,48.0376667 18.267658,48.0376667 C18.267658,48.0376667 21.2888476,55.1413333 23.5371747,39.1756667 C24.6613383,31.3686667 26.2070632,24.8276667 32.5304833,20.1856667 C37.9405204,16.1766667 38.432342,19.9043333 51.7817844,19.9043333 L51.7817844,19.9043333 Z" id="Shape" fill="#94734B"></path>
                                <path d="M28.9472119,91.4333333 C28.8066914,91.2926667 28.666171,91.0816667 28.5256506,90.941 C28.2446097,90.5893333 27.9635688,90.2376667 27.6825279,89.8156667 C27.5420074,89.6046667 27.401487,89.464 27.2609665,89.253 C26.9799257,88.831 26.6988848,88.4793333 26.4178439,88.0573333 C26.2773234,87.9166667 26.2070632,87.7056667 26.0665428,87.565 C25.7152416,87.0726667 25.4342007,86.5803333 25.1531599,86.0176667 C25.0828996,85.9473333 25.0828996,85.877 25.0126394,85.8066667 C24.6613383,85.244 24.3100372,84.611 24.0289963,84.0483333 C23.8884758,83.767 23.7479554,83.556 23.6776952,83.2746667 C23.4669145,82.923 23.3263941,82.501 23.1156134,82.1493333 C22.9750929,81.868 22.8345725,81.5866667 22.694052,81.235 C22.5535316,80.8833333 22.4130112,80.5316667 22.2022305,80.18 C22.06171,79.8283333 21.9211896,79.547 21.7806691,79.1953333 C21.7104089,79.0546667 20.6565056,76.382 20.0944238,74.3423333 C21.0780669,79.969 18.6189591,83.6966667 20.6565056,91.574 C22.6237918,99.4513333 25.9260223,103.39 25.0126394,110.353 C24.3100372,115.979667 23.1156134,118.722667 26.6988848,122.239333 C23.8884758,116.964333 29.298513,110.493667 32.6710037,110.493667 L36.3245353,110.493667 L36.3245353,99.3106667 L36.3245353,98.4666667 L35.9732342,98.1853333 C35.4814126,97.8336667 34.9895911,97.482 34.5680297,97.1303333 L34.4977695,97.06 C33.4438662,96.216 32.460223,95.372 31.5468401,94.3873333 C31.4765799,94.317 31.4063197,94.2466667 31.4063197,94.2466667 C30.9847584,93.8246667 30.6334572,93.4026667 30.2118959,92.9806667 C30.0713755,92.84 30.0011152,92.6993333 29.8605948,92.5586667 C29.5795539,92.207 29.298513,91.785 28.9472119,91.4333333 L28.9472119,91.4333333 Z" id="Shape" fill="#7F6344"></path>
                                <path d="M67.3795539,98.3963333 L67.3795539,110.423333 C69.4171004,110.564 73.0003717,109.579333 73.3516729,112.111333 C73.9137546,106.695667 80.6587361,104.374667 79.7453532,98.326 C79.394052,95.8643333 82.9070632,91.574 82.7665428,87.6353333 C82.4855019,77.648 83.6096654,79.4063333 84.0312268,72.8653333 L84.0312268,72.8653333 C81.1505576,83.9076667 75.1081784,93.1213333 67.3795539,98.3963333 L67.3795539,98.3963333 Z" id="Shape" fill="#7F6344"></path>
                            </g>
                            <path d="M59.7211896,63.511 L59.7211896,80.391 C59.7211896,80.391 61.9695167,96.005 63.3747212,99.17 C64.9204461,102.475667 68.9252788,106.836333 73.4219331,111.478333 C78.129368,116.401667 83.469145,121.465667 92.602974,121.465667 C100.6829,121.465667 109.395167,114.010333 112.135316,111.267333 C114.945725,108.524333 120.707063,104.585667 122.88513,98.1853333 C125.063197,91.785 126.538662,83.134 126.538662,83.134 L127.381784,61.4713333 L123.657993,61.4713333 C123.657993,61.4713333 127.100743,70.8256667 122.95539,89.8156667 C121.690706,95.794 117.264312,98.326 113.048699,103.601 C108.833086,108.876 103.493309,109.368333 93.4460967,109.368333 C84.3825279,109.368333 78.6914498,109.860667 73.070632,103.601 C67.0282528,96.9193333 64.9907063,97.06 63.2342007,89.8156667 C58.4565056,70.263 63.6557621,61.4713333 63.6557621,61.4713333 L59.7211896,63.511 L59.7211896,63.511 Z" id="Beard" fill="#94734B"></path>
                        </g>
                    </g>
                </g>
            </g>
        </g>
    </g>
</svg>