<?xml version="1.0" encoding="UTF-8" standalone="no"?>
<svg width="70px" height="70px" viewBox="0 0 70 70" version="1.1" xmlns="http://www.w3.org/2000/svg" xmlns:xlink="http://www.w3.org/1999/xlink">
    <!-- Generator: Sketch 39.1 (31720) - http://www.bohemiancoding.com/sketch -->
    <title>discord</title>
    <desc>Created with Sketch.</desc>
    <defs></defs>
    <g id="Page-1" stroke="none" stroke-width="1" fill="none" fill-rule="evenodd">
        <g id="homepage" transform="translate(-415.000000, -1476.000000)">
            <g id="footer" transform="translate(0.000000, 1442.000000)">
                <g id="social-icons" transform="translate(215.000000, 34.000000)">
                    <g id="discord" transform="translate(200.000000, 0.000000)">
                        <g id="svg4136">
                            <g id="layer4" fill="#292F36">
                                <path d="M35.0008563,69.8987398 C54.2748756,69.8987398 69.8995553,54.2740004 69.8995553,34.9999076 C69.8995553,15.7258148 54.2748756,0.101075381 35.0008563,0.101075381 C15.7268371,0.101075381 0.10215736,15.7258148 0.10215736,34.9999076 C0.10215736,54.2740004 15.7268371,69.8987398 35.0008563,69.8987398 Z" id="path5269"></path>
                            </g>
                            <g id="layer3" transform="translate(13.000000, 19.000000)">
                                <g id="Group-6">
                                    <path d="M6.74546284,5.20792954 C15.3344882,1.10338766 25.6326373,-0.201538071 36.4556543,5.05135461 C33.8754874,2.90566642 31.0667708,1.41192725 27.7559306,0.544917697 L28.0397238,0.0409404818 C31.3159611,0.267559132 34.7853796,1.26690232 38.6868544,3.99447088 C44.5761576,16.8671823 43.7559818,23.5261253 44.1278509,25.5627383 C40.8023819,29.7612056 36.8324701,30.9786697 32.5804115,31.1994549 L30.2709239,28.3028084 C32.7869484,27.3477562 35.1666212,26.6051922 36.8470931,23.8404081 C27.4316925,29.2031674 17.6816974,29.5470031 7.52834014,23.8404081 C8.71535579,25.9392074 11.1226164,27.2464543 13.8696454,28.2538791 L11.4437107,31.1798823 C7.69688258,30.8810044 3.94785985,30.4072417 0.0564078106,25.6250159 C0.233538917,16.267119 2.71914822,9.62933163 5.47328725,4.03361462 C8.82235525,1.3423838 12.3094845,0.463147674 15.8659832,0.00179660187 L16.1889201,0.37366324 C10.4734129,2.22259036 8.15792089,3.77375352 6.74546284,5.20792954 L6.74546284,5.20792954 Z" id="path4187" fill="#519872"></path>
                                    <g id="layer5" transform="translate(10.324873, 13.522843)" fill="#292F36">
                                        <ellipse id="path4183" cx="4.70697666" cy="4.47009704" rx="3.95037477" ry="4.22716372"></ellipse>
                                        <ellipse id="ellipse4185" cx="18.446474" cy="4.47009704" rx="3.95037477" ry="4.22716372"></ellipse>
                                    </g>
                                </g>
                            </g>
                        </g>
                    </g>
                </g>
            </g>
        </g>
    </g>
</svg>