<?xml version="1.0" encoding="UTF-8" standalone="no"?>
<svg width="50px" height="50px" viewBox="0 0 50 50" version="1.1" xmlns="http://www.w3.org/2000/svg" xmlns:xlink="http://www.w3.org/1999/xlink">
    <!-- Generator: Sketch 39.1 (31720) - http://www.bohemiancoding.com/sketch -->
    <title>svg4136</title>
    <desc>Created with Sketch.</desc>
    <defs></defs>
    <g id="Page-1" stroke="none" stroke-width="1" fill="none" fill-rule="evenodd">
        <g id="tech-stuff" transform="translate(-377.000000, -616.000000)">
            <g id="Group-2" transform="translate(160.000000, 601.000000)">
                <g id="Group-3">
                    <g id="social-icons" transform="translate(20.885333, 15.000000)">
                        <g id="discord" transform="translate(196.878558, 0.000000)">
                            <g id="svg4136">
                                <g id="layer4" fill="#D8D8D8">
                                    <path d="M24.6268026,49.9276713 C38.1881127,49.9276713 49.1817267,38.7671432 49.1817267,24.999934 C49.1817267,11.2327248 38.1881127,0.0721967005 24.6268026,0.0721967005 C11.0654925,0.0721967005 0.0718785028,11.2327248 0.0718785028,24.999934 C0.0718785028,38.7671432 11.0654925,49.9276713 24.6268026,49.9276713 Z" id="path5269"></path>
                                </g>
                                <g id="layer3" transform="translate(9.146874, 13.571429)">
                                    <g id="Group-6">
                                        <path d="M4.74614621,3.71994967 C10.7894336,0.788134039 18.0352701,-0.143955765 25.6504068,3.60811044 C23.8349866,2.07547601 21.8587575,1.00851946 19.5292315,0.389226926 L19.72891,0.0292432013 C22.0340893,0.191113666 24.4751919,0.904930232 27.2202919,2.85319349 C31.3640393,12.0479873 30.7869589,16.8043752 31.0486082,18.2590988 C28.7087892,21.258004 25.9155365,22.1276212 22.9237638,22.2853249 L21.2987951,20.2162917 C23.0690844,19.5341116 24.7434357,19.0037087 25.9258254,17.028863 C19.3010957,20.8594053 12.4409433,21.1050022 5.29698316,17.028863 C6.13217416,18.5280053 7.82593649,19.4617531 9.75876183,20.1813422 L8.05186025,22.2713445 C5.41557058,22.0578603 2.77773676,21.7194584 0.039688858,18.3035828 C0.164319317,11.6193707 1.91320823,6.87809402 3.8510362,2.8811533 C6.20745959,0.95884557 8.66102368,0.330819767 11.1633965,0.00128328705 L11.3906167,0.266902315 C7.36915318,1.58756455 5.73995978,2.69553823 4.74614621,3.71994967 L4.74614621,3.71994967 Z" id="path4187" fill="#292F36"></path>
                                        <g id="layer5" transform="translate(7.264640, 9.659173)" fill="#D8D8D8">
                                            <ellipse id="path4183" cx="3.31185569" cy="3.19292646" rx="2.77950627" ry="3.01940266"></ellipse>
                                            <ellipse id="ellipse4185" cx="12.9790445" cy="3.19292646" rx="2.77950627" ry="3.01940266"></ellipse>
                                        </g>
                                    </g>
                                </g>
                            </g>
                        </g>
                    </g>
                </g>
            </g>
        </g>
    </g>
</svg>