<?xml version="1.0" encoding="UTF-8" standalone="no"?>
<svg width="51px" height="50px" viewBox="0 0 51 50" version="1.1" xmlns="http://www.w3.org/2000/svg" xmlns:xlink="http://www.w3.org/1999/xlink">
    <!-- Generator: Sketch 39.1 (31720) - http://www.bohemiancoding.com/sketch -->
    <title>Twitter</title>
    <desc>Created with Sketch.</desc>
    <defs></defs>
    <g id="Page-1" stroke="none" stroke-width="1" fill="none" fill-rule="evenodd">
        <g id="tech-stuff" transform="translate(-244.000000, -616.000000)">
            <g id="Group-2" transform="translate(160.000000, 601.000000)">
                <g id="Group-3">
                    <g id="social-icons" transform="translate(20.885333, 15.000000)">
                        <g id="Twitter" transform="translate(64.002616, 0.000000)">
                            <path d="M24.6262001,50 C38.2268748,50 49.2524002,38.8071187 49.2524002,25 C49.2524002,11.1928813 38.2268748,0 24.6262001,0 C11.0255253,0 0,11.1928813 0,25 C0,38.8071187 11.0255253,50 24.6262001,50 Z" id="Oval-1" fill="#D8D8D8"></path>
                            <path d="M36.2415978,15.4379524 C35.5465136,15.8899365 33.9506107,16.5467302 33.1635574,16.5467302 L33.1635574,16.5480794 C32.2648652,15.595 30.9996258,15 29.5964327,15 C26.8711176,15 24.6612015,17.2434603 24.6612015,20.0090635 C24.6612015,20.3933175 24.7050596,20.768127 24.7861306,21.1275556 L24.7853332,21.1275556 C21.088495,21.0290635 17.0453107,19.148 14.6113196,15.9285238 C13.1148285,18.558127 14.4098382,21.4826667 16.1080766,22.5482698 C15.5267576,22.5927937 14.4566202,22.4802698 13.9529167,21.9813333 C13.9191592,23.7266667 14.7458178,26.0392063 17.7600647,26.8781429 C17.179543,27.1952063 16.1519347,27.1042698 15.7051138,27.0368095 C15.8619397,28.5101429 17.894297,30.4362698 20.116706,30.4362698 C19.3246023,31.3664127 16.3443787,33.0534603 13,32.516746 C15.2713174,33.9196508 17.9184854,34.7321429 20.7203528,34.7321429 C28.6825896,34.7321429 34.8660487,28.1812063 34.5332588,20.0997302 C34.5319298,20.0908254 34.5319298,20.0819206 34.5311323,20.0722063 C34.5319298,20.0514286 34.5332588,20.0306508 34.5332588,20.0090635 C34.5332588,19.9839683 34.5311323,19.9602222 34.5303349,19.9359365 C35.2551895,19.4326825 36.2277759,18.5424762 36.9225944,17.3708254 C36.5196316,17.5961429 35.3107431,18.0473175 34.1858496,18.1593016 C34.9077803,17.7637143 35.9773861,16.4682063 36.2415978,15.4379524" id="Fill-1" fill="#292F36"></path>
                        </g>
                    </g>
                </g>
            </g>
        </g>
    </g>
</svg>